<?xml version="1.0" standalone="no"?>
<!DOCTYPE svg PUBLIC "-//W3C//DTD SVG 20010904//EN"
 "http://www.w3.org/TR/2001/REC-SVG-20010904/DTD/svg10.dtd">
<svg version="1.0" xmlns="http://www.w3.org/2000/svg"
 width="664.000000pt" height="664.000000pt" viewBox="0 0 664.000000 664.000000"
 preserveAspectRatio="xMidYMid meet">
<metadata>
Created by potrace 1.11, written by Peter Selinger 2001-2013
</metadata>
<g transform="translate(0.000000,664.000000) scale(0.100000,-0.100000)"
fill="#000000" stroke="none">
<path d="M0 3320 l0 -3320 3320 0 3320 0 0 3320 0 3320 -3320 0 -3320 0 0
-3320z m1195 1784 c127 -103 388 -319 580 -479 925 -768 1274 -1059 1840
-1530 337 -280 758 -631 936 -779 414 -343 540 -449 609 -511 30 -28 169 -144
307 -259 139 -115 253 -213 253 -218 0 -4 -922 -8 -2050 -8 l-2049 0 -73 61
c-40 33 -104 86 -142 117 -38 31 -88 73 -111 92 -23 19 -108 89 -189 154 -80
66 -146 123 -146 128 0 4 720 8 1600 8 880 0 1600 3 1600 8 0 14 -15 28 -100
98 -47 38 -220 182 -384 320 -165 137 -313 260 -330 274 -17 14 -177 146 -356
295 -179 149 -487 405 -685 570 -198 164 -384 319 -414 344 -29 25 -70 60 -91
76 -21 17 -113 93 -205 170 -221 184 -258 215 -470 390 -99 82 -184 154 -190
160 -6 8 -9 143 -7 375 2 342 3 362 20 348 9 -8 121 -100 247 -204z"/>
</g>
</svg>
